<mxfile host="app.diagrams.net" modified="2021-11-27T07:58:06.383Z" agent="5.0 (Windows NT 10.0; Win64; x64) AppleWebKit/537.36 (KHTML, like Gecko) Chrome/83.0.4103.116 Safari/537.36" etag="VNxt89Oce0fFeTnYT2jc" version="15.8.3" type="github">
  <diagram id="rx1oDeuhlW_kaDRLecYM" name="Page-1">
    <mxGraphModel dx="1422" dy="762" grid="1" gridSize="10" guides="1" tooltips="1" connect="1" arrows="1" fold="1" page="1" pageScale="1" pageWidth="827" pageHeight="1169" math="0" shadow="0">
      <root>
        <mxCell id="0" />
        <mxCell id="1" parent="0" />
        <mxCell id="u4IvgcetQXjWhXc85SeZ-1" value="配置化前端开发平台" style="text;html=1;resizable=0;autosize=1;align=center;verticalAlign=middle;points=[];fillColor=none;strokeColor=none;rounded=0;" vertex="1" parent="1">
          <mxGeometry x="70" y="10" width="120" height="20" as="geometry" />
        </mxCell>
        <mxCell id="u4IvgcetQXjWhXc85SeZ-4" value="" style="rounded=0;whiteSpace=wrap;html=1;" vertex="1" parent="1">
          <mxGeometry x="40" y="40" width="1220" height="600" as="geometry" />
        </mxCell>
        <mxCell id="u4IvgcetQXjWhXc85SeZ-5" value="" style="rounded=0;whiteSpace=wrap;html=1;" vertex="1" parent="1">
          <mxGeometry x="40" y="40" width="230" height="600" as="geometry" />
        </mxCell>
        <mxCell id="u4IvgcetQXjWhXc85SeZ-6" value="" style="rounded=0;whiteSpace=wrap;html=1;" vertex="1" parent="1">
          <mxGeometry x="1050" y="40" width="210" height="600" as="geometry" />
        </mxCell>
        <mxCell id="u4IvgcetQXjWhXc85SeZ-7" value="模板" style="text;html=1;strokeColor=none;fillColor=none;align=center;verticalAlign=middle;whiteSpace=wrap;rounded=0;" vertex="1" parent="1">
          <mxGeometry x="90" y="50" width="40" height="20" as="geometry" />
        </mxCell>
        <mxCell id="u4IvgcetQXjWhXc85SeZ-8" value="组件" style="text;html=1;strokeColor=none;fillColor=none;align=center;verticalAlign=middle;whiteSpace=wrap;rounded=0;" vertex="1" parent="1">
          <mxGeometry x="51" y="50" width="30" height="20" as="geometry" />
        </mxCell>
        <mxCell id="u4IvgcetQXjWhXc85SeZ-9" value="&lt;font style=&quot;font-size: 10px&quot;&gt;输入框&lt;/font&gt;" style="text;html=1;strokeColor=none;fillColor=none;align=center;verticalAlign=middle;whiteSpace=wrap;rounded=0;" vertex="1" parent="1">
          <mxGeometry x="51" y="90" width="59" height="30" as="geometry" />
        </mxCell>
        <mxCell id="u4IvgcetQXjWhXc85SeZ-11" value="&lt;font style=&quot;font-size: 10px&quot;&gt;下拉框&lt;/font&gt;" style="text;html=1;strokeColor=none;fillColor=none;align=center;verticalAlign=middle;whiteSpace=wrap;rounded=0;" vertex="1" parent="1">
          <mxGeometry x="50" y="130" width="59" height="30" as="geometry" />
        </mxCell>
        <mxCell id="u4IvgcetQXjWhXc85SeZ-13" value="&lt;font style=&quot;font-size: 10px&quot;&gt;Table&lt;/font&gt;" style="text;html=1;strokeColor=none;fillColor=none;align=center;verticalAlign=middle;whiteSpace=wrap;rounded=0;" vertex="1" parent="1">
          <mxGeometry x="49" y="170" width="59" height="30" as="geometry" />
        </mxCell>
        <mxCell id="u4IvgcetQXjWhXc85SeZ-14" value="&lt;font style=&quot;font-size: 10px&quot;&gt;......&lt;/font&gt;" style="text;html=1;strokeColor=none;fillColor=none;align=center;verticalAlign=middle;whiteSpace=wrap;rounded=0;" vertex="1" parent="1">
          <mxGeometry x="49" y="200" width="59" height="30" as="geometry" />
        </mxCell>
        <mxCell id="u4IvgcetQXjWhXc85SeZ-15" value="&lt;span style=&quot;font-size: 10px&quot;&gt;组件属性&lt;/span&gt;" style="text;html=1;strokeColor=none;fillColor=none;align=center;verticalAlign=middle;whiteSpace=wrap;rounded=0;" vertex="1" parent="1">
          <mxGeometry x="1060" y="50" width="59" height="30" as="geometry" />
        </mxCell>
        <mxCell id="u4IvgcetQXjWhXc85SeZ-16" value="&lt;span style=&quot;font-size: 10px&quot;&gt;属性1&lt;/span&gt;" style="text;html=1;strokeColor=none;fillColor=none;align=center;verticalAlign=middle;whiteSpace=wrap;rounded=0;" vertex="1" parent="1">
          <mxGeometry x="1080" y="90" width="59" height="30" as="geometry" />
        </mxCell>
        <mxCell id="u4IvgcetQXjWhXc85SeZ-17" value="&lt;span style=&quot;font-size: 10px&quot;&gt;属性1&lt;/span&gt;" style="text;html=1;strokeColor=none;fillColor=none;align=center;verticalAlign=middle;whiteSpace=wrap;rounded=0;" vertex="1" parent="1">
          <mxGeometry x="1080" y="130" width="59" height="30" as="geometry" />
        </mxCell>
        <mxCell id="u4IvgcetQXjWhXc85SeZ-18" value="&lt;span style=&quot;font-size: 10px&quot;&gt;属性1&lt;/span&gt;" style="text;html=1;strokeColor=none;fillColor=none;align=center;verticalAlign=middle;whiteSpace=wrap;rounded=0;" vertex="1" parent="1">
          <mxGeometry x="1080" y="170" width="59" height="30" as="geometry" />
        </mxCell>
        <mxCell id="u4IvgcetQXjWhXc85SeZ-19" value="&lt;span style=&quot;font-size: 10px&quot;&gt;属性1&lt;/span&gt;" style="text;html=1;strokeColor=none;fillColor=none;align=center;verticalAlign=middle;whiteSpace=wrap;rounded=0;" vertex="1" parent="1">
          <mxGeometry x="1080" y="210" width="59" height="30" as="geometry" />
        </mxCell>
        <mxCell id="u4IvgcetQXjWhXc85SeZ-20" value="&lt;span style=&quot;font-size: 10px&quot;&gt;视图窗口，是除了header、footer 和侧边菜单栏的所有内容&lt;br&gt;&lt;/span&gt;" style="text;html=1;strokeColor=none;fillColor=none;align=center;verticalAlign=middle;whiteSpace=wrap;rounded=0;" vertex="1" parent="1">
          <mxGeometry x="480" y="50" width="330" height="30" as="geometry" />
        </mxCell>
      </root>
    </mxGraphModel>
  </diagram>
</mxfile>
